# xmcd CD database file
#
# Track frame offsets:
#	150
#	22640
#	39310
#	63977
#	78602
#	99252
#	117600
#	137552
#	153375
#	174995
#
# Disc length: 2582 seconds
#
# Revision: 0
# Processed by: cddbd v1.5.1PL2 Copyright (c) Steve Scherf et al.
# Submitted via: CDex 1.51
#
DISCID=710a140a
DTITLE=Rosemary Clooney - Sings Ballads
DYEAR=1985
DGENRE=Jazz
TTITLE0=THANKS FOR THE MEMORY
TTITLE1=HERE'S THAT RAINY DAY
TTITLE2=THE SHADOW OF YOU SMILE
TTITLE3=A NIGHTINGALE SANG IN BERKELEY SQUARE
TTITLE4=BEWITCHED, BOTHERED AND BEWILDERED
TTITLE5=THE DAYS OF WINE AND ROSES
TTITLE6=EASY LIVING
TTITLE7=SPRING IS HERE
TTITLE8=WHY SHOULDN'T I
TTITLE9=IT NEVER ENTERED MY MIND
EXTD=YEAR: 1985
EXTT0=
EXTT1=
EXTT2=
EXTT3=
EXTT4=
EXTT5=
EXTT6=
EXTT7=
EXTT8=
EXTT9=
PLAYORDER=
